<svg width="1120" height="768" viewBox="0 0 1120 768" fill="none" xmlns="http://www.w3.org/2000/svg">
  <defs>
    <linearGradient id="bg" x1="96" y1="84" x2="1020" y2="696" gradientUnits="userSpaceOnUse">
      <stop stop-color="#07112E"/>
      <stop offset="0.52" stop-color="#12205A"/>
      <stop offset="1" stop-color="#173B7A"/>
    </linearGradient>
    <linearGradient id="glow" x1="243" y1="228" x2="854" y2="560" gradientUnits="userSpaceOnUse">
      <stop stop-color="#FF7AD8"/>
      <stop offset="0.45" stop-color="#9E6BFF"/>
      <stop offset="1" stop-color="#49C9FF"/>
    </linearGradient>
    <radialGradient id="orb" cx="0" cy="0" r="1" gradientUnits="userSpaceOnUse" gradientTransform="translate(833 156) rotate(123.003) scale(193.95 227.847)">
      <stop stop-color="#FFE4A3"/>
      <stop offset="1" stop-color="#FFE4A3" stop-opacity="0"/>
    </radialGradient>
  </defs>
  <rect x="44" y="44" width="1032" height="680" rx="64" fill="url(#bg)"/>
  <circle cx="833" cy="156" r="180" fill="url(#orb)"/>
  <path d="M347 179C269 234 239 293 287 352C313 384 360 410 395 441C451 491 450 563 383 625" stroke="url(#glow)" stroke-width="28" stroke-linecap="round"/>
  <path d="M495 195C426 246 392 296 421 346C437 374 471 395 505 426C563 478 547 556 463 639" stroke="#7A6DFF" stroke-width="20" stroke-linecap="round"/>
  <path d="M309 357C406 413 480 444 592 471" stroke="#FFD0F1" stroke-width="18" stroke-linecap="round" opacity="0.88"/>
  <circle cx="618" cy="242" r="24" fill="#FDBA4D"/>
  <circle cx="648" cy="216" r="10" fill="#FFF5B8"/>
  <text x="560" y="520" text-anchor="middle" fill="white" font-family="Arial, sans-serif" font-size="94" font-weight="700">Party Swami</text>
  <text x="560" y="578" text-anchor="middle" fill="#D9E4FF" font-family="Arial, sans-serif" font-size="28" letter-spacing="7">PLAN · INVITE · SHOP · HOST</text>
  <text x="560" y="640" text-anchor="middle" fill="#AFC5FF" font-family="Arial, sans-serif" font-size="24">AI-powered party planning, guests, shopping, and event-day flow in one workspace.</text>
</svg>
